<svg xmlns="http://www.w3.org/2000/svg" width="10" height="15.7" viewBox="0 0 10 15.7" preserveAspectRatio="none">
  <defs>
    <style>
      path {
        fill: #1c1c1c;
      }
    </style>
  </defs>
  <title>icon-note-text</title>
  <path d="M7.1,1.8a2.4,2.4,0,0,1-.6,1.7,1,1,0,0,0-.3.6.3.3,0,0,0,.3.3,4.7,4.7,0,0,1,1.7-.5A1.8,1.8,0,0,1,10,5.7a1.9,1.9,0,0,1-1.9,2A2.2,2.2,0,0,1,6.1,6.7a.7.7,0,0,0-.5-.3,2.3,2.3,0,0,0-.7,1.7c0,1,1.1,1.8,2.2,2.5A3,3,0,0,1,8.9,13a2.6,2.6,0,0,1-2.7,2.6,5.7,5.7,0,0,1-3.1-1.5c-.6-.5-.9-.7-1.3-.7s-.7.4-1,1.1-.3-.1-.3-.3,1.1-1.7,1.6-1.8,1.6.6,2.6,1.4a3.5,3.5,0,0,0,2.1.9A1.2,1.2,0,0,0,8,13.5c0-1-1.1-1.6-1.9-2.2S4,9.5,4,8.7a3.4,3.4,0,0,1,.5-1.7,1.6,1.6,0,0,0,.2-.6H4.5L4,6.7A3.5,3.5,0,0,1,2,7.8a1.9,1.9,0,0,1-2-2A1.9,1.9,0,0,1,2,3.8a5,5,0,0,1,1.5.3c.2,0,.3-.2.3-.3S3.1,3,3.1,2a1.9,1.9,0,0,1,2-2A1.8,1.8,0,0,1,7.1,1.8ZM3.9,5a.9.9,0,0,0,1.9,0,1,1,0,0,0-1-.9A1,1,0,0,0,3.9,5Z"/>
</svg>
