<svg xmlns="http://www.w3.org/2000/svg" width="13.5" height="12" viewBox="0 0 13.5 12" preserveAspectRatio="none">
  <defs>
    <style>
      path {
        fill: #1c1c1c;
      }
    </style>
  </defs>
  <title>icon-note-link</title>
  <path d="M3.4,5c0-1.5-.6-2.6-1.4-2.6s-.5.2-.5.6H1a.7.7,0,0,1-.8-.8,1,1,0,0,1,1.1-.9C3,1.5,4.1,3.4,4.1,4.9h0a4,4,0,0,1,2.2.6h0a2.9,2.9,0,0,1-1.1-2A1.5,1.5,0,0,1,7,2.1H8.1A1.2,1.2,0,0,0,9.4,1,1.1,1.1,0,0,0,8.9.2C8.8.1,8.9,0,9,0a2,2,0,0,1,1.7,2c0,1.4-1.1,1.9-2.7,2.6a1,1,0,0,0-.7.9.6.6,0,0,0,.1.3A2.3,2.3,0,0,1,9.2,5a3,3,0,0,1,1.8.9c.6.6,1,.6,1.2.6a1.1,1.1,0,0,0,1.1-.7c.1-.1.2-.1.2,0a1.1,1.1,0,0,1,0,.3,2.5,2.5,0,0,1-2.4,2.4A3.2,3.2,0,0,1,8.6,7.3c-.6-.6-1-.9-1.4-.9a.5.5,0,0,0-.2.4c0,.5.4,1,.9,1.7s.9,1.3.9,1.9A1.8,1.8,0,0,1,7.3,12H7c-.2,0-.2-.1,0-.2a1,1,0,0,0,.5-.7c0-.5-.2-.6-1.2-1.3A2.4,2.4,0,0,1,4.8,7.9,2.4,2.4,0,0,1,6.3,6a4.4,4.4,0,0,0-2-.4H4.1A3.7,3.7,0,0,1,1,9.1a1.9,1.9,0,0,0,.7,1.5h.6c.1,0,.1.1,0,.2a2,2,0,0,1-1.2.6l-.5-.3A4,4,0,0,1,0,8.9,3.9,3.9,0,0,1,3.4,5ZM2.7,7.5a4,4,0,0,0,.6-1.8,3,3,0,0,0-1.7,1,3.3,3.3,0,0,0-.7,2A3.2,3.2,0,0,0,2.7,7.5Z"/>
</svg>
